<?xml version="1.0" encoding="UTF-8"?>
<svg id="Layer_1" data-name="Layer 1" xmlns="http://www.w3.org/2000/svg" xmlns:xlink="http://www.w3.org/1999/xlink" viewBox="0 0 586.72 316.09">
  <defs>
    <style>
      .cls-1 {
        fill: #fff;
      }

      .cls-2 {
        fill: none;
      }

      .cls-3 {
        clip-path: url(#clippath-1);
      }

      .cls-4 {
        fill: #c5922d;
      }

      .cls-5 {
        clip-path: url(#clippath);
      }
    </style>
    <clipPath id="clippath">
      <rect class="cls-2" x="12.37" y="2.42" width="561.98" height="311.25"/>
    </clipPath>
    <clipPath id="clippath-1">
      <rect class="cls-2" x="13.5" y="3.04" width="559.72" height="310"/>
    </clipPath>
  </defs>
  <g id="Artwork_3" data-name="Artwork 3">
    <g class="cls-5">
      <g class="cls-3">
        <g>
          <path class="cls-1" d="M214.71,223.62c-4.27.03-8.56,0-12.84.08-3.9.08-7.81.28-11.72.43q-5.09.05-5.76-5.03c-.13-.97-.18-1.96-.19-2.94-.03-2.38-.91-3.94-3.27-5.04-2.1-.97-4.13-2.47-5.68-4.2-7.85-8.7-15.5-17.57-23.32-26.29-1.27-1.41-1.12-2.59-.94-4.36.75-7.21,5.04-10.72,11.65-12.38,6.13-1.55,12.21-3.31,18.28-5.08,1.78-.51,2.04.18,1.99,1.71-.23,6.22-1.4,12.2-5.09,17.33-1.35,1.87-1.37,3.34.04,4.84,7.51,7.97,15.06,15.89,22.63,23.79.39.41,1.13.69,1.72.7,7.77.14,11.24,5.68,12.28,12.52.19,1.29.15,2.61.22,3.92"/>
          <path class="cls-1" d="M374.53,180.72c-6.02,7.53-11.93,15.15-17.98,22.67-.52.65-1.89,1.17-2.66.97-10.53-2.73-21.02-5.6-30.83-8.25,4.58-4.84,9.35-9.75,13.95-14.81,1.09-1.2,1.58-.73,2.6-.09,2.39,1.49,4.79,3.16,7.42,4,1.43.45,3.35-.64,5.05-1.03-.72-1.44-1.08-3.32-2.22-4.27-5.69-4.79-11.67-9.24-17.38-14.02-3.08-2.59-2.9-2.74.67-4.74,6.59-3.7,13.17-7.39,19.67-11.22,1.99-1.18,3.36-1.04,4.63.86,5.76,8.64,11.51,17.27,17.32,25.87,1.01,1.5.86,2.66-.26,4.06"/>
          <path class="cls-1" d="M472.16,126.67c-4.37,12.99-11.92,23.24-24.64,29.24-9.49,4.48-16.23,11.66-20.91,21-4.84,9.67-11.33,11.53-22.27,9.67-1.95-.33-3.8-1.91-5.45-3.23-2.72-2.16-5.03-4.89-7.88-6.83-5.92-4.01-6.92-5.78-5.25-12.87,1.3-5.51,2.9-10.96,4.42-16.41.75-2.68-.03-4.78-1.73-6.94-3.21-4.08-7.62-7.64-7.77-13.36-.08-3.32.67-6.66,1.06-10,.07-.58.2-1.16.45-2.55-3.53,3.37-5.03,6.97-5.94,10.75-.77,3.17-.91,6.48-1.5,9.69-.17.88-.75,2.23-1.41,2.42-12.82,3.67-23.62,11.25-35.05,17.65-7.98,4.46-16.35,8.21-25.37,12.69,2.35,2.05,4.91,4.41,7.6,6.59,1.47,1.19,1.5,2.35.8,3.95-4.79,11.13-9.49,22.3-14.34,33.4-.36.82-1.68,1.71-2.56,1.72-13.38.11-26.77.08-40.11.08-.11-.33-.3-.64-.23-.7,5.62-6.13,9.81-13.11,12.53-20.96.7-2.04,1.53-1.7,3.29-1.12,3.38,1.11,6.94,2.05,10.47,2.19,1.73.07,3.54-1.83,5.3-2.84-1.31-1.46-2.33-3.53-3.96-4.27-5.95-2.71-12.27-4.67-18.16-7.49-12-5.77-23.41-12.52-32.15-22.86-4.86-5.75-8.71-12.07-9.78-20.08-.5,1.33-1.04,2.65-1.51,4-2.35,6.65-3.92,13.47-3.38,20.55.16,2.04-.49,2.22-2,2.04-10.32-1.2-20.86-1.52-30.93-3.83-10.78-2.48-21.13-6.84-31.67-10.38-.26-.03-.53-.05-.79-.08.13.19.27.38.41.57,2.25,2.82,4.52,5.64,6.78,8.45-2.25,1.11-4.52,2.19-6.75,3.35-11.3,5.91-21.53,13.11-28.88,23.79-4.59,6.66-6.9,14.09-7.17,22.14-.08,2.5.14,4.38,3.18,5.76,4.91,2.22,5.76,7.31,6.37,12.17-.16.11-.32.21-.48.33-3.46.02-6.92.03-10.38.05-4.31,0-8.61.02-12.92.03-1.21.02-2.41.04-3.62.04-6.81,0-7,0-6.64-6.92.21-4.09.79-8.23,1.84-12.18,1.52-5.71-.8-11.04-1.01-16.55-.23-6.28-.51-12.66,2.47-18.29,1.77-3.32,4.68-6.26,7.68-8.61,1.82-1.42,2.16-2.46,1.88-4.47-1.6-11.28-1.32-22.46,2.3-33.38,2.97-8.98,8.43-16.22,15.79-22.1.33-.22.65-.44.97-.65.25-.28.5-.57.76-.85-.45.08-.9.18-1.35.26-.45.21-.91.41-1.37.61-6.77,3.27-10.83,9.29-15.18,15.02-.34-.09-.68-.18-1.02-.28,1.43-5.68,2.89-11.35,4.27-17.04.27-1.13.72-2.77.18-3.46-8.31-10.57-17.93-19.52-31.35-23.22-4.42-1.22-8.93-1.41-12.89,1.53-3.32,2.47-4.58,5.96-3.53,9.89,1.1,4.09,2.95,7.99,3.99,12.08,1.14,4.48,2.28,9.08,2.43,13.67.23,6.96-3.85,11.88-9.52,15.47-3.13,1.98-6.49,3.61-9.73,5.42-3.15,1.76-5.91,3.72-7.84,7.09-3.37,5.87-9.59,6.28-15.54,6.78-3.61.3-7.26.23-10.82.82-2.71.45-5.31,1.66-7.96,2.53v-1.32c2.08-3.64,3.88-7.46,6.3-10.85,4.08-5.73,9.55-9.66,16.78-10.45,2.03-.23,4.17-.06,6.18.34,7.65,1.5,19.67-3.88,23.41-10.69,2.34-4.26,1.95-8.61.33-13-1.93-5.2-4.32-10.3-5.61-15.66-3.39-14.05,6.44-24.48,20.83-22.88,10.33,1.16,19.21,5.75,27.87,10.91,5.64,3.37,11.04,7.13,16.69,10.49,1.35.8,3.26,1.09,4.87.99,7.85-.49,14.83-3.67,21.46-7.57,20.71-12.19,43.16-19.92,66.16-26.39,8.3-2.34,16.36-5.45,24.46-8.45,2.19-.8,4.3-2.19,6.02-3.76,12.49-11.48,25.8-21.74,41.48-28.59,27.01-11.8,52.87-9.33,77.58,6.48,2.76,1.77,5.4,3.7,7.96,5.46-10.47,4.98-20.81,9.91-31.15,14.84-.55.14-1.11.28-1.66.42.03.14.06.29.09.44.67-.12,1.35-.23,2.03-.34,9.86-3.39,19.93-5.97,30.42-6.16,23.38-.44,41.84,9.35,55.33,27.99,5.29,7.29,10.39,13.93,18.9,17.94,4.69,2.2,8.26,6.8,12.33,10.31-.23.31-.48.62-.72.93-2.97-.96-5.87-2.25-8.91-2.81-4.05-.75-8.18-1.14-12.3-1.28-3.18-.11-5.8-3.67-5.39-7.53.15-1.47-.5-3.04-.79-4.57-.23-.32-.45-.64-.67-.96,0,0,0,0,0,0h0c-.43-.97-.76-1.99-1.32-2.88-7.06-11.35-17.22-18.79-29.67-23.33-9.51-3.47-19.12-6.38-29.48-5.17-13.54,1.57-26.64,5.04-39.5,9.38-8.67,2.92-17.21,6.22-26.41,9.57,12.8-19.12,30.5-30.85,51.98-38.85-2.98-1.34-5.1-2.43-7.32-3.26-14.48-5.35-29.15-4.77-43.99-1.59-19.61,4.2-36.2,13.8-50,28.02-6.23,6.43-13.52,10.2-21.92,12.41-9.29,2.45-18.69,4.56-27.87,7.41-11.92,3.71-23.16,9.03-34.42,14.52-12.42,6.06-25.87,10.02-38.85,14.91-.35.13-.7.28-1.04.43,4.27,1.16,8.55,2.32,12.82,3.49.16.28.32.56.47.84-17.34,6.91-26.63,20.4-29.65,38.08-1.08,6.34.57,13.17.97,19.77,1.53,4.58,3.07,9.17,4.74,14.16,1.43-1.26,2.15-1.92,2.91-2.55,5.97-5.02,11.86-10.19,19.56-12.42,2.44-.7,2.59-1.47,1.84-3.7-2.03-5.98-3.8-12.05-2.96-18.55.37-2.87,1.16-2.87,3.41-1.42,4.98,3.19,10,6.36,15.25,9.07,14.01,7.24,28.82,11.55,44.75,11.3,5.09-.08,5.23-.23,5.17-5.05-.13-11.81,8.23-22.15,19.24-27.64,1.21-.61,1.6-.39,2.1,1.13,1.74,5.25,3.15,10.82,6,15.44,12.49,20.22,43.94,22.48,60.51,13.55,7.7-4.15,15.86-6.04,24.17-7.99,9.34-2.2,18.73-4.36,27.88-7.24,7.42-2.34,12.86-7.22,15.24-15.11.8-2.65,2.42-5.17,4.11-7.42,4.16-5.54,9.65-8.97,17.05-9.66-1.11,2.45-2.12,4.51-2.99,6.62-3.81,9.26-3.3,18.12,2.59,26.46,1.13,1.61,2.22,3.26,3.28,4.92,2.04,3.18,2.86,6.63,1.89,10.34-1.23,4.75-2.54,9.47-3.85,14.19-1.13,4.1-.51,5.29,2.97,7.67,1.9,1.31,3.31,3.32,5.12,4.8,1.3,1.06,2.8,2.27,4.36,2.54,6.58,1.13,12.55-3.98,12.93-10.76,2.9-7.13,8.59-11.78,14.61-16.06,5.19-3.68,10.47-7.21,15.84-10.6,7.26-4.59,11.59-11.19,13.72-19.32.64-2.45,1.3-4.04,4.11-2.34.46.27,1.03.37,1.55.54,5.03,1.58,4.97,1.56,3.32,6.45"/>
          <path class="cls-1" d="M515.5,117.25c-9.16,3.78-18.08,5.35-27.36,4.74-10.52-.7-20.37-3.6-29.65-8.65-5.22-2.84-10.52-1.78-14.77,2.34-1.02.99-1.98,2.05-2.97,3.08-4.78,4.93-10.94,6.07-16.41,3.04-4.52-2.5-6.51-8.42-4.97-14.76,2.96-12.14,18.22-21.84,30.55-19.3,12.5,2.57,23.86,7.56,33.86,15.66,9.07,7.34,19.26,12.46,31.72,13.85"/>
        </g>
        <g>
          <g>
            <g>
              <path class="cls-4" d="M419,168.03c-.38,6.78-6.35,11.9-12.93,10.76-1.56-.27-3.06-1.47-4.36-2.54-1.81-1.48-3.21-3.49-5.12-4.8-3.48-2.38-4.09-3.57-2.97-7.67,1.31-4.73,2.62-9.44,3.85-14.19.96-3.71.14-7.16-1.89-10.34-1.06-1.66-2.15-3.31-3.28-4.92-5.88-8.34-6.4-17.2-2.59-26.46.87-2.11,1.88-4.17,2.99-6.62-7.4.69-12.89,4.11-17.05,9.66-1.69,2.25-3.31,4.77-4.11,7.42-2.37,7.88-7.82,12.77-15.24,15.11-9.14,2.88-18.53,5.04-27.88,7.24-8.3,1.94-16.47,3.83-24.17,7.99-16.57,8.93-48.03,6.67-60.51-13.55-2.86-4.63-4.26-10.2-6-15.44-.5-1.53-.89-1.74-2.1-1.13-11,5.49-19.37,15.83-19.24,27.64.06,4.83-.08,4.98-5.17,5.05-15.94.26-30.74-4.06-44.75-11.3-5.25-2.71-10.28-5.88-15.25-9.07-2.25-1.44-3.04-1.45-3.41,1.42-.84,6.5.92,12.57,2.96,18.55.76,2.23.61,2.99-1.84,3.7-7.68,2.22-13.59,7.4-19.56,12.42-.75.63-1.47,1.29-2.91,2.55-1.68-4.99-3.21-9.57-4.74-14.16,11.72-5.57,18.63-15.04,21.45-27.43.75-3.3,2.17-4.56,5.22-4.94,11.86-1.47,23.69-3.3,35.58-4.44,13.87-1.32,27.79-2.05,41.75-3.29-11.01-5.14-22.77-4.85-34.57-4.21-.07-.28-.13-.56-.19-.84,4.45-.98,8.85-2.31,13.35-2.86,13.42-1.63,26.71-.06,39.95,2.13,1.68.28,2.22.84,2.69,2.74.8,3.26,2.02,6.93,4.28,9.23,10.21,10.34,22.88,15.53,37.4,16.07,1.94.08,4.09-.06,5.82-.84,11.25-5.06,23.44-5.32,35.34-7.12,6.71-1.01,13.44-2.04,20.09-3.36,4.18-.84,7.35-2.86,9.45-7.19,3.22-6.63,9.14-11.13,15.09-15.32,2.21-1.57,2.04-2.76-.22-3.46-6.47-1.99-13-3.76-19.54-5.5-1.88-.5-3.87-.59-5.79-1.02,15.53-2.59,30.8-1.42,45.87,2.97,1.9.55,2.31,1.47,2.33,3.49.05,6.64.38,13.3.92,19.93.16,1.97,1,4.18,2.22,5.74,4.1,5.22,4.77,11.4,5.58,17.59.49,3.69.87,7.39,1.38,11.08.34,2.49,1.63,3.95,3.94,5.45,3.11,1.99,5.31,5.32,7.89,8.08"/>
              <path class="cls-4" d="M435.63,68.72c.55.89.89,1.91,1.32,2.87t0-.02h0c-4.13-4.05-8.05-8.31-12.43-12.07-16.85-14.53-36.16-19.19-57.99-14.51-20.59,4.41-40.21,11.5-59.46,19.79-1.21.52-2.42,1.03-3.64,1.51-.16.07-.4-.07-1.07-.2,11.52-22.1,29.53-36.58,52.12-46.83-3.19-.74-6.34-1.71-9.58-2.18-24.58-3.52-46.88,1.88-66.45,17.37-6.54,5.17-12.71,10.78-19.23,15.97-2.44,1.94-5.2,3.75-8.12,4.73-9.25,3.08-18.53,6.23-28,8.45-14.12,3.31-27.29,8.83-40.04,15.49-11.02,5.75-22.18,11.04-34.72,12.95.6,1.69,1.13,3.14,1.65,4.59h-.02c-4.27-1.16-8.55-2.33-12.82-3.49.34-.15.69-.29,1.04-.43,12.99-4.89,26.44-8.85,38.85-14.91,11.25-5.49,22.5-10.81,34.42-14.52,9.18-2.85,18.58-4.96,27.87-7.41,8.4-2.21,15.69-5.98,21.93-12.41,13.8-14.22,30.39-23.82,50-28.02,14.84-3.18,29.51-3.76,43.99,1.59,2.22.83,4.34,1.92,7.32,3.26-21.48,8-39.17,19.73-51.98,38.85,9.19-3.35,17.74-6.64,26.41-9.57,12.86-4.32,25.96-7.8,39.5-9.38,10.35-1.2,19.96,1.7,29.48,5.17,12.44,4.54,22.6,11.99,29.66,23.34"/>
            </g>
            <g>
              <path class="cls-4" d="M547.4,85.64c-7.83,35.42-21.17,68.73-40.09,99.75-2.27,3.71-5.18,7.06-7.99,10.42-1.25,1.49-2.84,2.77-4.49,3.81-4.21,2.64-8.06,1.27-8.36-3.63-.39-6.37-.26-12.94.88-19.2,3.28-18.04,9.51-35.25,16.25-52.26,1.01-2.56,1.37-2.7,5.41-2.7-2.2,5.77-4.43,11.43-6.5,17.14-5.49,15.15-10.37,30.47-12.54,46.5-.36,2.7-.39,5.47-.28,8.19.04,1.05.7,2.66,1.47,2.93.82.29,2.42-.39,3.12-1.16,2.71-3.01,5.45-6.03,7.7-9.38,12.4-18.49,21.23-38.75,29.06-59.47,5.97-15.78,11.19-31.82,13.62-48.57.5-3.44.53-7,.33-10.47-.16-2.65-1.83-3.33-3.74-1.49-2.61,2.48-5.06,5.2-7.14,8.13-8.36,11.75-14.65,24.64-20.64,37.69-.33.7-.48,1.84-.97,2.01-1.11.38-2.38.27-3.59.36-.04-.65-.32-1.41-.08-1.94,6.76-14.98,13.73-29.88,23.92-42.94,2.06-2.64,4.62-5.04,7.37-6.96,3.97-2.77,7.83-1.41,8.17,3.37.44,6.6.53,13.48-.88,19.87"/>
              <path class="cls-4" d="M571.4,57.75c-.88-4.48-2.87-7.92-7.62-9.38-3.34-1.03-6.63-2.38-9.79-3.89-3.59-1.72-7.04-1.48-9.94.81-4.1,3.26-8.26,6.63-11.55,10.64-13.31,16.26-22.42,34.97-30.92,54.01-.26.56.3,1.89.88,2.3,2.15,1.53,2.68-.32,3.37-1.84,7.96-17.71,16.61-35.07,28.62-50.45,3.15-3.99,6.89-7.7,10.86-10.88,4.18-3.33,7.26-1.89,8.63,3.35.19.73.28,1.5.37,2.27,1.2,9.61-.58,18.99-2.49,28.32-4.98,24.36-13.42,47.58-23.56,70.21-8,17.81-16.84,35.21-29.25,50.45-3.07,3.78-6.86,7.08-10.78,9.98-3.01,2.21-5.97.96-6.86-2.64-.84-3.34-1.29-6.93-1.16-10.37.58-17.36,5.15-33.93,10.39-50.32,2.9-9.06,6.24-17.94,9.4-26.91-3.89-.23-4.12-.19-5,2.13-8.24,21.63-15.69,43.52-18.17,66.65-.71,6.53.22,13.28.9,19.87.34,3.3,2.77,5.54,6.07,6.72,3.69,1.29,7.27,2.87,10.93,4.36,2.72,1.1,8.07.6,8.07.6,3.41-2.94,7-5.6,10.02-8.77,3.15-3.33,6.05-6.97,8.61-10.79,22.21-33.39,36.87-70.04,46.56-108.73,1.69-6.76,2.72-13.67,4.06-20.51v-15.12c-.23-.7-.52-1.39-.66-2.08M566.85,55.84c-5.75-.95-8.58-2.57-9.18-5.6,3.18,1.93,7.12,1.72,9.18,5.6M491.19,216.93c3.86-1.98,6.59,1.35,9.9,2.23-3.83,1.85-6.61-1.2-9.9-2.23M494.82,214.16c4.57-5.3,7.81,1.29,12.25.47-3.24,4.01-4.19,3.93-12.25-.47M511.73,210.19c-1.16,2.81-3.54,3.75-6.42,2.6-2.02-.8-4.03-1.63-7.21-2.94,2.04-1.61,3.71-4.01,5.2-3.89,2.79.22,5.51,1.83,8.22,2.96.21.09.35.91.21,1.27M518.44,201.35c-3.64,6.44-6.31,7.11-12.79,3.22-.41-.26-.95-1.14-.81-1.33,1.5-2.3,3.09-4.51,4.72-6.72.15-.23.54-.3.77-.39,2.81,1.11,5.58,2.17,8.29,3.37.17.09.1,1.33-.18,1.85M527.39,186.97c-1.89,3.3-3.84,6.61-5.94,9.76-.41.6-1.69.65-2.57.9-.08.03-.22-.08-.3-.13q-7.73-2.68-3.63-9.53c.99-1.69,1.95-3.41,2.98-5.09.3-.49.77-.88,1.11-1.29,2.98,1.22,5.73,2.27,8.41,3.48.23.13.23,1.39-.07,1.89M537.24,168.37c-2.27,4.47-4.52,8.95-6.85,13.36-.37.71-1.31,1.83-1.63,1.72-2.9-.96-5.71-2.15-8.5-3.34-.17-.08-.19-.99,0-1.37,2.53-5.06,5.11-10.13,7.73-15.12.23-.45,1.07-1.01,1.42-.88,2.66.95,5.28,2.04,7.89,3.13.32.13.49.58.7.88-.29.64-.53,1.13-.76,1.63M544.94,151.52c-1.59,3.71-3.26,7.41-4.94,11.05-.32.71-.85,1.33-1.27,1.95-3.09-1.25-5.86-2.3-8.54-3.52-.26-.11-.28-1.35-.03-1.93,2.42-5.73,4.89-11.44,7.49-17.09.26-.58,1.37-.8,2.13-1.11.13-.07.39.18.58.26q7.87,2.72,4.57,10.38M555.71,123.24c-2.08,5.86-4.18,11.7-6.44,17.49-.23.6-1.53.8-2.36,1.16-.07.04-.18-.11-.28-.13q-7.81-2.64-4.94-10.32c1.48-3.99,2.86-8,4.33-12,.22-.58.6-1.1.9-1.63,3.11,1.25,5.86,2.27,8.56,3.49.3.17.41,1.37.21,1.94M557.13,118.95c-.08.3-.81.43-1.27.56-.17.04-.39-.18-.6-.23q-8.26-2.51-5.75-10.67c.92-3.02,1.93-6.05,2.57-9.17.47-2.23,1.42-2.27,3.15-1.46,1.78.84,3.67,1.44,5.47,2.23.66.3,1.18.92,1.76,1.37-1.87,6.09-3.56,11.74-5.34,17.36M564.64,92.23c-1.54,7.11-1.57,7.15-8.33,4.33-1.16-.49-2.15-1.42-2.83-1.89,1.06-4.77,1.83-8.61,2.79-12.4.11-.47,1.22-.71,1.89-1.03.04-.04.19.08.3.13q8.01,2.64,6.18,10.86M566.87,80.5c-.3,1.59-.75,2.19-2.3,1.44-.11-.04-.19-.11-.3-.15q-7.96-2.71-5.84-12.55c.92.34,1.84.66,2.75,1.03,7.06,2.77,7,2.77,5.69,10.23M567.93,71.01c-2.34-.92-4.4-1.93-6.59-2.56-2.38-.71-3.05-1.87-2.9-4.44.17-2.77.84-3.26,3.13-1.99.47.28,1.01.43,1.53.62q5.3,2.13,4.83,8.37M567.73,62.61c-2.71-1.07-5.54-1.91-8.03-3.33-.96-.56-1.18-2.42-1.72-3.69.23-.19.49-.37.73-.54,2.68,1.1,5.51,1.93,7.99,3.37.99.56,1.18,2.42,1.73,3.69-.23.18-.47.35-.7.49"/>
            </g>
          </g>
          <g>
            <polygon class="cls-4" points="44.1 223.96 35.18 295.98 26.3 223.96 13.5 223.96 26.55 311.63 43.88 311.63 56.89 223.97 44.1 223.97 44.1 223.96"/>
            <path class="cls-4" d="M89.07,223.96h-17.31l-13.05,87.66h12.73l2.27-17.87h13.32l2.27,17.87h12.77l-13-87.66ZM75.23,281.69l5.15-40.75,5.13,40.75h-10.28Z"/>
            <path class="cls-4" d="M132.91,223.96v70.62c0,3.97-1.84,5.94-5.54,5.94s-5.51-1.98-5.51-5.94v-70.62h-12.64v70.62c0,12.32,6.05,18.45,18.16,18.45,12.1-.03,18.17-6.18,18.17-18.45v-70.62h-12.64Z"/>
            <polygon class="cls-4" points="169.35 299.16 169.35 223.96 156.72 223.96 156.72 311.62 189.51 311.62 189.51 299.15 169.35 299.15 169.35 299.16"/>
            <polygon class="cls-4" points="188.67 223.96 188.67 236.43 200.49 236.43 200.49 311.63 213.13 311.63 213.13 236.43 224.97 236.43 224.97 223.96 188.67 223.96"/>
            <polygon class="cls-4" points="292.46 224.01 279.07 246.62 265.66 224.01 255.7 224.01 255.7 311.67 267.91 311.67 267.91 249.93 279.07 268.94 290.23 249.93 290.23 311.67 302.44 311.67 302.44 224.01 292.46 224.01"/>
            <path class="cls-4" d="M340.4,223.96h-17.34l-13.02,87.65h12.73l2.27-17.87h13.31l2.3,17.87h12.77l-13.01-87.65ZM326.56,281.69l5.13-40.75,5.15,40.75h-10.28Z"/>
            <path class="cls-4" d="M387.39,286.11c5.9-3.05,8.84-8.43,8.84-16.18v-27.51c0-12.28-5.6-18.41-16.84-18.45h-18.39v87.65h12.64v-23.24h1.73l11.26,23.24h13.84l-13.08-25.51ZM383.59,270.38c0,2.81-1.14,4.66-3.44,5.58-.66.23-1.87.37-3.63.37h-2.9v-39.94h4.47c3.67,0,5.5,1.99,5.5,5.99v27.99Z"/>
            <polygon class="cls-4" points="431.4 282.68 446.36 223.96 433.73 223.96 420.27 278.68 420.27 223.96 407.63 223.96 407.63 311.62 420.27 311.62 420.27 287.93 433.73 311.62 447.27 311.62 431.4 282.68"/>
            <polygon class="cls-4" points="487.63 236.43 487.63 223.96 454.86 223.96 454.86 311.62 487.63 311.62 487.63 299.15 467.5 299.15 467.5 288.37 484.82 288.37 484.82 275.86 467.5 275.86 467.5 236.42 487.63 236.42 487.63 236.43"/>
            <polygon class="cls-4" points="493.44 223.96 493.44 236.43 505.29 236.43 505.29 311.63 517.93 311.63 517.93 236.43 529.78 236.43 529.78 223.96 493.44 223.96"/>
            <path class="cls-4" d="M573.22,262.44v-21.46c0-12.25-6.05-18.39-18.17-18.39s-18.13,6.13-18.13,18.39v15.11c0,10.15,3.93,18.05,11.82,23.67,7.89,5.66,11.85,10.6,11.85,14.83,0,3.97-1.83,5.94-5.5,5.94s-5.54-1.98-5.54-5.94v-6.16h-12.64v6.16c0,12.28,6.05,18.43,18.17,18.45,12.08,0,18.13-6.13,18.13-18.45,0-8.56-3.95-15.66-11.85-21.31-7.88-4.77-11.82-10.58-11.82-17.47v-14.83c0-3.95,1.8-5.94,5.45-5.94h.08c3.67.04,5.5,2.02,5.5,5.94v21.46h12.64Z"/>
          </g>
        </g>
      </g>
    </g>
  </g>
</svg>